# xmcd CD database file
#
# Track frame offsets:
#	150
#	19727
#	44303
#	57561
#	75933
#	114827
#	139974
#	165333
#	189272
#	201376
#	223807
#	238432
#	261106
#
# Disc length: 3891 seconds
#
# Revision: 0
# Processed by: cddbd v1.5.1PL2 Copyright (c) Steve Scherf et al.
# Submitted via: CDex 1.51
#
DISCID=b60f310d
DTITLE=Roswell Rudd - Blue Mongol
DYEAR=2005
DGENRE=Jazz
TTITLE0=The Camel
TTITLE1=Gathering Light
TTITLE2=Behind the Mountains
TTITLE3=Steppes Song
TTITLE4=Djoloren
TTITLE5=Four Mountains
TTITLE6=Buryat Boogie
TTITLE7=Blue Mongol
TTITLE8=Bridle Ringing
TTITLE9=Ulirenge
TTITLE10=American Bound
TTITLE11=The Leopard
TTITLE12=Honey on the Moon
EXTD=YEAR: 2005
EXTT0=
EXTT1=
EXTT2=
EXTT3=
EXTT4=
EXTT5=
EXTT6=
EXTT7=
EXTT8=
EXTT9=
EXTT10=
EXTT11=
EXTT12=
PLAYORDER=
